<svg id="Capa_1" enable-background="new 0 0 512 512" height="512" viewBox="0 0 512 512" width="512" xmlns="http://www.w3.org/2000/svg"><g><g><g clip-rule="evenodd" fill-rule="evenodd"><path d="m234.388 173.133 21.612 30.044-15.819 44.1-45.772 25.459-40.829-23.377-16.863-43.686-37.313 27.777-39.65 58.944c9.213 24.119 22.746 46.104 39.65 65.009v-10.825c0-17.042 13.943-30.986 30.985-30.986h10.727c17.042 0 30.985 13.943 30.985 30.986v24.775c0 10.616-8.894 23.862-21.583 30.086l36.374 16.737c2.824-5.121 7.504-8.526 13.835-11.42l38.729-17.702c-14.211-6.973-24.174-21.811-24.174-33.703v-27.753c0-19.09 15.619-34.709 34.709-34.709h12.016l56.309-23.111 21.263-45-4.977-48.376 42.178-18.045 89.22 59.144c0-81.601-46.542-152.331-114.528-187.093l-111.29 45.147-18.201 59.94z" fill="#8ad8f6"/><path d="m79.249 330.927c6.021 9.361 12.766 18.213 20.155 26.477v-10.825c0-17.042 13.943-30.986 30.985-30.986h10.727c17.042 0 30.985 13.943 30.985 30.986v24.775c0 10.616-8.894 23.862-21.583 30.086l36.374 16.737c2.824-5.121 7.504-8.526 13.835-11.42l38.729-17.702c-14.211-6.973-24.174-21.811-24.174-33.703v-27.753c0-19.09 15.619-34.709 34.709-34.709h12.016l31.568-12.957c-9.058-6.024-19.915-9.543-31.568-9.543h-12.016c-31.509 0-57.209 25.7-57.209 57.209v5.15c-6.121-22.793-26.986-39.654-51.667-39.654h-10.727c-15.864 0-30.15 6.968-39.958 17.999-3.369-5.741-11.994-28.138-15.39-41.424l-15.287 22.727c5.187 13.574 11.742 26.474 19.496 38.53zm115.352 37.698c1.299 4.729 3.257 9.281 5.751 13.565l-8.063 3.685c1.495-4.663 2.311-9.537 2.311-14.521v-2.729z" fill="#3ca6e6"/><path d="m339.58 224.777-21.263 45-56.309 23.111c19.09 0 34.709 15.619 34.709 34.709v27.753c0 11.892-9.963 26.73-24.177 33.702l38.732 17.703c6.331 2.894 11.011 6.299 13.835 11.42l36.372-16.736c-12.686-6.225-21.581-19.471-21.581-30.087v-24.776c0-17.042 13.943-30.985 30.985-30.985h10.727c17.042 0 30.985 13.943 30.985 30.985v10.826c33.209-37.138 53.405-86.159 53.405-139.901l-89.218-59.145-42.178 18.045zm-240.176 8.673-39.65 58.944c-8.886-23.261-13.754-48.508-13.754-74.893 0-115.98 94.02-210 210-210 34.379 0 66.829 8.261 95.472 22.907l-111.29 45.147-18.201 59.94 12.408 37.637 21.611 30.045-15.819 44.1-45.772 25.459-40.829-23.377-16.863-43.686z" fill="#00ddc0"/><path d="m296.717 327.598h-81.435v27.753c0 19.245 21.549 37.673 40.717 37.673 19.169 0 40.718-18.428 40.718-37.673z" fill="#f5d9ab"/><path d="m215.283 327.598h81.435c0-19.09-15.619-34.709-34.709-34.709h-12.016c-19.091-.001-34.71 15.619-34.71 34.709z" fill="#faef93"/><path d="m311.272 406.757-38.729-17.703c-5.061 2.483-10.662 3.969-16.543 3.969s-11.481-1.486-16.543-3.969l-38.729 17.703c-11.389 5.205-16.585 11.885-16.95 24.454v73.29h144.446v-73.29c-.366-12.569-5.563-19.249-16.952-24.454z" fill="#faef93"/><path d="m183.777 504.501v-73.29c.156-5.366 1.215-9.588 3.115-13.034l-36.372-16.736c-9.577 4.699-19.958 4.701-29.534-.001l-34.576 15.804c-9.454 4.321-14.786 9.921-15.132 21.83v65.427z" fill="#00ddc0"/><path d="m183.777 504.501v-73.29c.156-5.366 1.215-9.588 3.115-13.034l-20.483-9.424c-3.155 6.259-4.882 13.497-5.123 21.805l-.009.326v73.617z" fill="#00959b"/><path d="m135.753 404.984c17.112 0 36.348-16.45 36.348-33.63v-24.775h-72.697v24.775c0 17.18 19.237 33.63 36.349 33.63zm240.495 0c17.112 0 36.348-16.45 36.348-33.631v-24.775h-72.697v24.775c0 17.181 19.237 33.631 36.349 33.631z" fill="#fbf2e2"/><path d="m99.404 346.579h72.697c0-17.042-13.943-30.986-30.985-30.986h-10.727c-17.042 0-30.985 13.943-30.985 30.986z" fill="#faef93"/><path d="m135.753 404.984c3.723 0 7.546-.779 11.25-2.174-13.321-5.018-25.099-18.014-25.099-31.456v-24.775h-22.5v24.775c0 17.18 19.237 33.63 36.349 33.63zm240.495 0c3.723 0 7.546-.779 11.25-2.174-13.321-5.018-25.099-18.014-25.099-31.456v-24.775h-22.5v24.775c0 17.18 19.237 33.63 36.349 33.63z" fill="#f7e0ba"/><path d="m99.404 346.579h22.5c0-15.031 10.847-27.648 25.099-30.418-5.073-.986-11.395-.567-16.613-.567-17.043-.001-30.986 13.942-30.986 30.985z" fill="#f6e23d"/><path d="m93.778 413.876-7.368 3.368c-9.454 4.321-14.786 9.921-15.132 21.83v65.427h22.5z" fill="#00959b"/><path d="m206.277 411.397-5.549-4.64c-11.389 5.206-16.585 11.885-16.95 24.454v73.29h22.5v-93.104z" fill="#f6e23d"/><path d="m328.223 504.501v-73.29c-.156-5.366-1.215-9.588-3.115-13.034l36.372-16.736c9.577 4.699 19.958 4.701 29.534-.001l34.576 15.804c9.454 4.321 14.786 9.921 15.132 21.83v65.427z" fill="#8ad8f6"/><path d="m328.223 504.501v-73.29c-.156-5.366-1.215-9.588-3.115-13.034l20.483-9.424c3.155 6.259 4.882 13.497 5.123 21.805l.009.326v73.617z" fill="#3ca6e6"/><path d="m339.899 346.578h72.697c0-17.042-13.943-30.986-30.985-30.986h-10.727c-17.042.001-30.985 13.944-30.985 30.986z" fill="#faef93"/><path d="m339.899 346.578h22.5c0-15.031 10.847-27.649 25.099-30.418-5.073-.986-11.395-.567-16.613-.567-17.043 0-30.986 13.943-30.986 30.985z" fill="#f6e23d"/><path d="m267.292 7.8c-120.197-6.37-221.292 89.16-221.292 209.701 0 26.385 4.868 51.631 13.753 74.893l15.282-22.719c-4.267-16.682-6.536-34.163-6.536-52.174.001-112.219 88.025-203.875 198.793-209.701zm26.284 272.132c15.434 10.265 25.641 27.811 25.641 47.666v5.151c6.12-22.794 26.986-39.655 51.667-39.655h10.727c24.017 0 44.419 15.968 51.139 37.83-6.022 9.362-12.765 18.216-20.154 26.481v-10.826c0-17.042-13.943-30.985-30.985-30.985h-10.727c-17.042 0-30.985 13.943-30.985 30.985v24.776c0 10.616 8.894 23.862 21.581 30.087l-36.372 16.736c-2.824-5.121-7.504-8.526-13.835-11.42l-38.732-17.703c14.214-6.972 24.177-21.81 24.177-33.702v-27.753c0-19.09-15.619-34.709-34.709-34.709zm23.823 88.692c-1.299 4.729-3.257 9.281-5.752 13.566l8.063 3.686c-1.495-4.663-2.312-9.537-2.312-14.521v-2.731z" fill="#00959b"/><path d="m237.782 327.598h-22.5v27.753c0 19.245 21.549 37.673 40.717 37.673 3.719 0 7.527-.696 11.25-1.955-15.468-5.229-29.467-20.207-29.467-35.718z" fill="#f0b582"/><path d="m215.283 327.598h22.5c0-17.31 12.841-31.765 29.467-34.311-5.289-.811-11.846-.398-17.258-.398-19.09-.001-34.709 15.619-34.709 34.709z" fill="#f6e23d"/></g><g><path d="m383.982 94.457h-15v-15h15zm-30-15h-15v-15h15z" fill="#fff"/></g><g><path d="m290.723 431.209h15v15h-15z" fill="#fff"/></g></g><g><path d="m373.222 497h15v15h-15z"/><path d="m428.708 410.421-22.642-10.349c8.635-8.098 14.03-18.94 14.03-28.72v-11.136c34.453-39.578 53.404-90.136 53.404-142.716 0-58.096-22.624-112.715-63.704-153.795-41.081-41.081-95.7-63.705-153.796-63.705-55.187 0-107.817 20.712-148.196 58.321l10.224 10.977c37.592-35.015 86.592-54.298 137.972-54.298 27.052 0 52.876 5.346 76.488 15.014l-98.443 39.936-19.931 65.638 13.512 40.987 19.983 27.78-13.537 37.737-39.61 22.032-34.844-19.951-19.459-50.412-46.263 34.438-31.89 47.408c-5.593-18.689-8.506-38.242-8.506-58.107 0-51.383 19.283-100.383 54.297-137.973l-10.975-10.223c-37.61 40.375-58.322 93.005-58.322 148.196 0 52.58 18.951 103.138 53.403 142.717v11.136c0 9.78 5.396 20.621 14.03 28.72l-22.642 10.349c-8.816 4.03-19.001 10.904-19.51 28.434l-.002 73.144h294.443v-15h-22.499v-65.791l-.003-.218c-.082-2.826-.353-5.854-1.108-8.933l26.918-12.385c4.598 1.784 9.549 2.811 14.718 2.811 5.173 0 10.129-1.028 14.73-2.815l31.495 14.395c7.875 3.6 10.5 7.283 10.75 15.123v57.813h-30v15h45v-72.927l-.003-.218c-.511-17.529-10.696-24.403-19.512-28.434zm-323.797-171.721 28.366-21.116 14.266 36.959 46.813 26.804 51.934-28.887 18.102-50.463-23.241-32.309-11.304-34.287 16.471-54.243 104.659-42.457c59.941 31.969 102.009 93.194 107.01 164.489l-80.434-53.323-50.976 21.808 5.328 51.787-19.127 40.479-52.251 21.445h-10.537c-23.274 0-42.209 18.935-42.209 42.209v27.753c0 11.105 6.345 23.455 16.41 32.434l-26.582 12.15c-4.438 2.028-9.19 4.719-13.084 8.896l-18.981-8.733c8.65-8.101 14.056-18.955 14.056-28.744v-24.775c0-21.221-17.264-38.486-38.485-38.486h-10.727c-18.131 0-33.364 12.607-37.418 29.514-10.14-13.746-18.442-28.644-24.772-44.329zm151.089 146.822c-18.336 0-33.217-18.258-33.217-30.173v-20.253h66.435v20.253c-.001 11.916-14.882 30.173-33.218 30.173zm-32.158-65.425c3.265-11.366 13.748-19.709 26.149-19.709h12.016c12.402 0 22.885 8.343 26.15 19.709zm-116.938 33.981h57.697v17.275c0 10.319-12.924 26.13-28.848 26.13-15.925 0-28.849-15.812-28.849-26.13zm1.235-15c3.137-9.282 11.923-15.986 22.25-15.986h10.727c10.327 0 19.112 6.704 22.25 15.986zm-29.36 100.109c.25-7.84 2.874-11.523 10.749-15.123l31.495-14.396c4.601 1.787 9.556 2.815 14.73 2.815 5.169 0 10.12-1.027 14.718-2.811l26.986 12.417c-.663 2.653-1.08 5.601-1.176 8.902l-.003 66.009h-97.499zm112.498 57.813v-65.678c.29-9.214 3.356-13.535 12.568-17.745l35.608-16.275c5.157 2.046 10.728 3.221 16.547 3.221s11.391-1.175 16.547-3.221l35.608 16.275c9.212 4.21 12.278 8.531 12.568 17.745v65.678zm136.152-88.149c-3.082-3.248-7.292-6.29-13.039-8.917l-26.583-12.15c10.065-8.979 16.41-21.329 16.41-32.434v-27.753c0-15.067-7.941-28.308-19.853-35.778l39.492-16.209 23.399-49.521-4.626-44.965 33.382-14.282 82.443 54.654c-.825 42.037-14.642 82.514-39.424 116.109-4.054-16.906-19.287-29.514-37.419-29.514h-10.727c-21.221 0-38.485 17.265-38.485 38.485v24.776c0 9.79 5.406 20.643 14.056 28.744zm76.432-69.774h-55.227c3.137-9.282 11.922-15.985 22.25-15.985h10.727c10.327 0 19.112 6.703 22.25 15.985zm-56.462 32.276v-17.276h57.697v17.276c0 10.319-12.924 26.13-28.849 26.13s-28.848-15.811-28.848-26.13z"/></g></g></svg>